<?xml version="1.0" encoding="UTF-8"?>
<!-- Generated by jsxcad -->
<!DOCTYPE svg PUBLIC "-//W3C//DTD SVG 1.1 Tiny//EN" "http://www.w3.org/Graphics/SVG/1.1/DTD/svg11-tiny.dtd">
<svg baseProfile="tiny" height="12.88932514794537mm" width="12.944544291835456mm" viewBox="-6.472272145917728 -6.389325147945366 12.944544291835456 12.88932514794537" version="1.1" stroke="black" stroke-width=".1" fill="none" xmlns="http://www.w3.org/2000/svg">
<path fill="#000000" stroke="#000000" d="M1.5000000000000002 -2.598076211353316 L1.8369701987210294e-16 -3 L1.8369701987210294e-16 -3 L1.5000000000000002 -2.598076211353316 z"/>
<path fill="#000000" stroke="#000000" d="M2.598076211353316 -1.4999999999999996 L1.5000000000000004 -2.5980762113533156 L1.5000000000000004 -2.5980762113533156 L2.598076211353316 -1.4999999999999996 z"/>
<path fill="#000000" stroke="#000000" d="M3 0 L2.598076211353316 -1.4999999999999996 L2.598076211353316 -1.4999999999999996 L3 0 z"/>
<path fill="#000000" stroke="#000000" d="M2.598076211353316 1.4999999999999996 L3 0 L3 0 L2.598076211353316 1.4999999999999996 z"/>
<path fill="#000000" stroke="#000000" d="M1.5000000000000004 2.5980762113533156 L2.598076211353316 1.4999999999999996 L2.598076211353316 1.4999999999999996 L1.5000000000000004 2.5980762113533156 z"/>
<path fill="#000000" stroke="#000000" d="M1.8369701987210294e-16 3 L1.5000000000000002 2.598076211353316 L1.5000000000000002 2.598076211353316 L1.8369701987210294e-16 3 z"/>
<path fill="#000000" stroke="#000000" d="M-1.4999999999999991 2.598076211353316 L1.8369701987210294e-16 2.9999999999999996 L1.8369701987210294e-16 2.9999999999999996 L-1.4999999999999991 2.598076211353316 z"/>
<path fill="#000000" stroke="#000000" d="M-2.598076211353316 -1.5000000000000002 L-2.9999999999999996 3.673940397442059e-16 L-2.9999999999999996 3.673940397442059e-16 L-2.598076211353316 -1.5000000000000002 z"/>
<path fill="#000000" stroke="#000000" d="M-2.5980762113533156 1.4999999999999998 L-1.4999999999999991 2.598076211353316 L-1.4999999999999991 2.598076211353316 L-2.5980762113533156 1.4999999999999998 z"/>
<path fill="#000000" stroke="#000000" d="M-3 3.673940397442059e-16 L-2.598076211353316 1.4999999999999996 L-2.598076211353316 1.4999999999999996 L-3 3.673940397442059e-16 z"/>
<path fill="#000000" stroke="#000000" d="M-1.5000000000000016 -2.598076211353315 L-2.598076211353316 -1.5000000000000002 L-2.598076211353316 -1.5000000000000002 L-1.5000000000000016 -2.598076211353315 z"/>
<path fill="#000000" stroke="#000000" d="M1.8369701987210294e-16 -2.9999999999999996 L-1.500000000000001 -2.5980762113533156 L-1.500000000000001 -2.5980762113533156 L1.8369701987210294e-16 -2.9999999999999996 z"/>
<path fill="#000000" stroke="#000000" d="M1.5000000000000004 -2.5980762113533156 L1.8369701987210297e-16 -2.9999999999999996 L-1.5000000000000013 -2.598076211353315 L-2.598076211353316 -1.5 L-3 3.673940397442059e-16 L-2.598076211353316 1.4999999999999996 L-1.4999999999999993 2.5980762113533156 L1.8369701987210297e-16 2.9999999999999996 L1.5000000000000004 2.5980762113533156 L2.598076211353316 1.4999999999999996 L3 0 L2.598076211353316 -1.4999999999999996 z"/>
<path fill="#000000" stroke="#000000" d="M1.8369701987210297e-16 -2.9999999999999996 L1.5000000000000004 -2.5980762113533156 L2.598076211353316 -1.4999999999999996 L3 0 L2.598076211353316 1.4999999999999996 L1.5000000000000004 2.5980762113533156 L1.8369701987210297e-16 2.9999999999999996 L-1.4999999999999993 2.5980762113533156 L-2.598076211353316 1.4999999999999996 L-3 3.673940397442059e-16 L-2.598076211353316 -1.5 L-1.5000000000000013 -2.598076211353315 z"/>
<path fill="#000000" stroke="#000000" d="M1.8588926881750742 -3.5418241026128396 L1.8588926881750742 -3.5418241026128396 L2.449293598294706e-16 -4 L2.449293598294706e-16 -4 z"/>
<path fill="#000000" stroke="#000000" d="M3.291935463574625 -2.2722589869246232 L3.291935463574625 -2.2722589869246232 L1.8588926881750742 -3.5418241026128396 L1.8588926881750742 -3.5418241026128396 z"/>
<path fill="#000000" stroke="#000000" d="M2.449293598294706e-16 -3.9999999999999996 L2.449293598294706e-16 -3.9999999999999996 L-1.8588926881750762 -3.5418241026128383 L-1.8588926881750762 -3.5418241026128383 z"/>
<path fill="#000000" stroke="#000000" d="M3.7400649707416593 1.4184195481701425 L3.7400649707416593 1.4184195481701425 L3.9708354963922154 -0.48214672102129197 L3.9708354963922154 -0.48214672102129197 z"/>
<path fill="#000000" stroke="#000000" d="M2.6524906329631808 2.994042992684404 L2.6524906329631808 2.994042992684404 L3.7400649707416593 1.4184195481701425 L3.7400649707416593 1.4184195481701425 z"/>
<path fill="#000000" stroke="#000000" d="M0.9572626571502303 3.883767269704208 L0.9572626571502303 3.883767269704208 L2.6524906329631803 2.9940429926844043 L2.6524906329631803 2.9940429926844043 z"/>
<path fill="#000000" stroke="#000000" d="M3.970835496392216 -0.48214672102129197 L3.970835496392216 -0.48214672102129197 L3.2919354635746254 -2.272258986924623 L3.2919354635746254 -2.272258986924623 z"/>
<path fill="#000000" stroke="#000000" d="M-0.9572626571502317 3.883767269704208 L-0.9572626571502317 3.883767269704208 L0.9572626571502305 3.883767269704208 L0.9572626571502305 3.883767269704208 z"/>
<path fill="#000000" stroke="#000000" d="M-2.6524906329631808 2.994042992684404 L-2.6524906329631808 2.994042992684404 L-0.9572626571502316 3.883767269704208 L-0.9572626571502316 3.883767269704208 z"/>
<path fill="#000000" stroke="#000000" d="M-3.970835496392216 -0.4821467210212894 L-3.970835496392216 -0.4821467210212894 L-3.740064970741659 1.4184195481701432 L-3.740064970741659 1.4184195481701432 z"/>
<path fill="#000000" stroke="#000000" d="M-3.740064970741659 1.4184195481701432 L-3.740064970741659 1.4184195481701432 L-2.652490632963181 2.9940429926844034 L-2.652490632963181 2.9940429926844034 z"/>
<path fill="#000000" stroke="#000000" d="M-1.8588926881750762 -3.5418241026128383 L-1.8588926881750762 -3.5418241026128383 L-3.2919354635746263 -2.272258986924621 L-3.2919354635746263 -2.272258986924621 z"/>
<path fill="#000000" stroke="#000000" d="M-3.291935463574627 -2.2722589869246206 L-3.291935463574627 -2.2722589869246206 L-3.9708354963922163 -0.48214672102128947 L-3.9708354963922163 -0.48214672102128947 z"/>
<path fill="#000000" stroke="#000000" d="M1.8588926881750745 -3.5418241026128388 L2.4492935982947064e-16 -3.9999999999999996 L-1.8588926881750765 -3.5418241026128374 L-3.291935463574627 -2.2722589869246206 L-3.9708354963922163 -0.4821467210212894 L-3.740064970741659 1.4184195481701432 L-2.652490632963181 2.9940429926844034 L-0.9572626571502317 3.8837672697042076 L0.9572626571502305 3.8837672697042076 L2.6524906329631808 2.994042992684404 L3.7400649707416593 1.4184195481701425 L3.970835496392216 -0.48214672102129197 L3.2919354635746254 -2.272258986924623 z"/>
<path fill="#000000" stroke="#000000" d="M1.8588926881750745 -3.5418241026128388 L3.2919354635746254 -2.272258986924623 L3.970835496392216 -0.48214672102129197 L3.7400649707416593 1.4184195481701425 L2.6524906329631808 2.994042992684404 L0.9572626571502305 3.8837672697042076 L-0.9572626571502317 3.8837672697042076 L-2.652490632963181 2.9940429926844034 L-3.740064970741659 1.4184195481701432 L-3.9708354963922163 -0.4821467210212894 L-3.291935463574627 -2.2722589869246206 L-1.8588926881750765 -3.5418241026128374 L2.4492935982947064e-16 -3.9999999999999996 z"/>
<path fill="#000000" stroke="#000000" d="M2.348070830216493 -6.061069491128313 L2.348070830216493 -6.061069491128313 L3.980102097228897e-16 -6.5 L3.980102097228897e-16 -6.5 z"/>
<path fill="#000000" stroke="#000000" d="M4.379021683702621 -4.803557961934285 L4.379021683702621 -4.803557961934285 L2.348070830216493 -6.061069491128313 L2.348070830216493 -6.061069491128313 z"/>
<path fill="#000000" stroke="#000000" d="M5.818561393807904 -2.897299312547499 L5.818561393807904 -2.897299312547499 L4.3790216837026215 -4.803557961934284 L4.3790216837026215 -4.803557961934284 z"/>
<path fill="#000000" stroke="#000000" d="M3.980102097228897e-16 -6.499999999999999 L3.980102097228897e-16 -6.499999999999999 L-2.3480708302164883 -6.061069491128315 L-2.3480708302164883 -6.061069491128315 z"/>
<path fill="#000000" stroke="#000000" d="M5.187111977321558 3.9171251364651654 L5.187111977321558 3.9171251364651654 L6.2518666806233245 1.7788094354685369 L6.2518666806233245 1.7788094354685369 z"/>
<path fill="#000000" stroke="#000000" d="M3.4218090587028147 5.5264113822424905 L3.4218090587028147 5.5264113822424905 L5.187111977321557 3.917125136465166 L5.187111977321557 3.917125136465166 z"/>
<path fill="#000000" stroke="#000000" d="M6.2518666806233245 1.778809435468537 L6.2518666806233245 1.778809435468537 L6.4722721459177235 -0.5997443365114639 L6.4722721459177235 -0.5997443365114639 z"/>
<path fill="#000000" stroke="#000000" d="M6.472272145917724 -0.5997443365114639 L6.472272145917724 -0.5997443365114639 L5.818561393807904 -2.8972993125474993 L5.818561393807904 -2.8972993125474993 z"/>
<path fill="#000000" stroke="#000000" d="M1.1943718658077096 6.389325147945361 L1.1943718658077096 6.389325147945361 L3.4218090587028147 5.5264113822424905 L3.4218090587028147 5.5264113822424905 z"/>
<path fill="#000000" stroke="#000000" d="M-1.1943718658077047 6.389325147945361 L-1.1943718658077047 6.389325147945361 L1.1943718658077096 6.389325147945361 L1.1943718658077096 6.389325147945361 z"/>
<path fill="#000000" stroke="#000000" d="M-3.421809058702808 5.526411382242495 L-3.421809058702808 5.526411382242495 L-1.1943718658077047 6.389325147945362 L-1.1943718658077047 6.389325147945362 z"/>
<path fill="#000000" stroke="#000000" d="M-5.187111977321553 3.917125136465169 L-5.187111977321553 3.917125136465169 L-3.421809058702808 5.526411382242495 L-3.421809058702808 5.526411382242495 z"/>
<path fill="#000000" stroke="#000000" d="M-6.251866680623323 1.7788094354685426 L-6.251866680623323 1.7788094354685426 L-5.187111977321554 3.917125136465168 L-5.187111977321554 3.917125136465168 z"/>
<path fill="#000000" stroke="#000000" d="M-6.4722721459177235 -0.5997443365114604 L-6.4722721459177235 -0.5997443365114604 L-6.251866680623323 1.7788094354685426 L-6.251866680623323 1.7788094354685426 z"/>
<path fill="#000000" stroke="#000000" d="M-2.3480708302164883 -6.061069491128315 L-2.3480708302164883 -6.061069491128315 L-4.379021683702621 -4.803557961934285 L-4.379021683702621 -4.803557961934285 z"/>
<path fill="#000000" stroke="#000000" d="M-5.818561393807907 -2.897299312547495 L-5.818561393807907 -2.897299312547495 L-6.472272145917724 -0.5997443365114604 L-6.472272145917724 -0.5997443365114604 z"/>
<path fill="#000000" stroke="#000000" d="M-4.3790216837026215 -4.803557961934284 L-4.3790216837026215 -4.803557961934284 L-5.818561393807907 -2.897299312547495 L-5.818561393807907 -2.897299312547495 z"/>
<path fill="#000000" stroke="#000000" d="M2.3480708302164937 -6.061069491128312 L3.9801020972288977e-16 -6.499999999999999 L-2.3480708302164888 -6.061069491128314 L-4.3790216837026215 -4.803557961934284 L-5.818561393807907 -2.897299312547495 L-6.472272145917724 -0.5997443365114604 L-6.251866680623323 1.7788094354685426 L-5.187111977321554 3.9171251364651685 L-3.4218090587028085 5.526411382242494 L-1.194371865807705 6.389325147945361 L1.1943718658077098 6.38932514794536 L3.421809058702815 5.52641138224249 L5.187111977321558 3.9171251364651654 L6.2518666806233245 1.778809435468537 L6.472272145917724 -0.5997443365114639 L5.818561393807904 -2.8972993125474993 L4.3790216837026215 -4.803557961934284 z"/>
<path fill="#000000" stroke="#000000" d="M3.9801020972288977e-16 -6.499999999999999 L2.3480708302164937 -6.061069491128312 L4.3790216837026215 -4.803557961934284 L5.818561393807904 -2.8972993125474993 L6.472272145917724 -0.5997443365114639 L6.2518666806233245 1.778809435468537 L5.187111977321558 3.9171251364651654 L3.421809058702815 5.52641138224249 L1.1943718658077098 6.38932514794536 L-1.194371865807705 6.389325147945361 L-3.4218090587028085 5.526411382242494 L-5.187111977321554 3.9171251364651685 L-6.251866680623323 1.7788094354685426 L-6.472272145917724 -0.5997443365114604 L-5.818561393807907 -2.897299312547495 L-4.3790216837026215 -4.803557961934284 L-2.3480708302164888 -6.061069491128314 z"/>
</svg>